<svg id="svg" version="1.1" xmlns="http://www.w3.org/2000/svg" xmlns:xlink="http://www.w3.org/1999/xlink" width="400" height="400" viewBox="0, 0, 400,400"><g id="svgg"><path id="path0" d="M209.800 117.454 C 201.661 122.399,202.400 121.142,202.400 130.036 L 202.400 137.533 203.900 138.704 C 204.725 139.349,206.660 140.574,208.200 141.428 C 209.740 142.281,211.979 143.569,213.176 144.290 C 215.327 145.584,216.939 145.946,217.379 145.233 C 217.581 144.907,223.588 141.250,224.600 140.837 C 224.820 140.747,225.776 140.083,226.725 139.362 C 227.673 138.641,228.663 137.979,228.925 137.892 C 229.417 137.728,229.722 126.022,229.305 123.282 C 229.099 121.933,228.398 121.362,222.800 117.986 C 221.810 117.389,219.931 116.248,218.624 115.450 C 215.639 113.629,216.371 113.463,209.800 117.454 M199.600 140.768 C 197.801 141.715,191.050 145.567,189.092 146.766 L 187.584 147.688 187.692 155.941 L 187.800 164.193 191.800 166.721 C 194.000 168.111,196.070 169.363,196.400 169.502 C 196.730 169.641,197.800 170.260,198.778 170.877 C 199.756 171.495,200.836 171.996,201.178 171.991 C 201.788 171.982,210.341 167.078,213.300 165.040 L 214.800 164.008 214.800 156.280 C 214.800 146.907,215.726 148.136,203.400 141.148 C 201.047 139.815,201.355 139.845,199.600 140.768 M228.000 141.165 C 227.010 141.776,225.313 142.798,224.230 143.437 C 220.783 145.471,220.236 145.803,218.500 146.918 L 216.800 148.010 216.800 155.943 C 216.800 165.139,216.240 163.951,222.200 167.403 C 224.400 168.676,226.920 170.202,227.800 170.793 C 228.680 171.384,229.731 171.988,230.136 172.135 C 230.900 172.413,236.334 169.829,238.358 168.225 C 238.931 167.771,240.274 166.960,241.342 166.422 C 244.491 164.837,244.602 164.493,244.586 156.417 C 244.571 148.808,244.381 147.421,243.304 147.059 C 242.564 146.810,242.241 146.626,236.800 143.355 C 230.386 139.499,230.612 139.555,228.000 141.165 M156.792 178.786 C 157.045 179.258,157.518 179.747,157.843 179.872 C 158.945 180.295,158.796 179.748,157.561 178.835 C 156.342 177.933,156.336 177.933,156.792 178.786 M176.492 207.668 C 175.848 208.312,175.869 208.993,176.549 209.558 C 177.432 210.290,178.461 209.648,178.322 208.452 C 178.188 207.300,177.258 206.902,176.492 207.668 M188.492 209.668 C 187.281 210.879,188.854 212.441,190.245 211.408 C 190.847 210.960,190.910 210.700,190.557 210.123 C 190.003 209.218,189.133 209.027,188.492 209.668 M216.012 213.184 C 215.688 213.389,215.521 213.654,215.641 213.774 C 215.760 213.894,216.205 213.729,216.629 213.409 C 217.473 212.771,216.960 212.585,216.012 213.184 " stroke="none" fill="#ba04dc" fill-rule="evenodd"></path><path id="path1" d="M213.692 111.600 C 213.220 112.040,212.596 112.400,212.305 112.400 C 212.014 112.400,211.517 112.760,211.200 113.200 C 210.883 113.640,210.303 114.000,209.912 114.000 C 209.520 114.000,209.200 114.180,209.200 114.400 C 209.200 114.620,208.880 114.800,208.488 114.800 C 208.097 114.800,207.517 115.160,207.200 115.600 C 206.883 116.040,206.343 116.400,206.000 116.400 C 205.657 116.400,205.117 116.760,204.800 117.200 C 204.483 117.640,203.903 118.000,203.512 118.000 C 203.120 118.000,202.800 118.180,202.800 118.400 C 202.800 118.620,202.440 118.800,202.000 118.800 C 201.560 118.800,201.200 118.980,201.200 119.200 C 201.200 119.420,200.840 119.600,200.400 119.600 C 199.623 119.600,199.600 119.867,199.600 128.800 C 199.600 137.353,199.550 138.000,198.888 138.000 C 198.497 138.000,197.917 138.360,197.600 138.800 C 197.283 139.240,196.703 139.600,196.312 139.600 C 195.920 139.600,195.600 139.780,195.600 140.000 C 195.600 140.220,195.322 140.400,194.983 140.400 C 194.644 140.400,193.980 140.760,193.508 141.200 C 193.036 141.640,192.413 142.000,192.125 142.000 C 191.836 142.000,191.600 142.180,191.600 142.400 C 191.600 142.620,191.322 142.800,190.983 142.800 C 190.644 142.800,189.980 143.160,189.508 143.600 C 189.036 144.040,188.413 144.400,188.125 144.400 C 187.836 144.400,187.600 144.580,187.600 144.800 C 187.600 145.020,187.366 145.200,187.080 145.200 C 186.344 145.200,184.407 144.259,184.403 143.900 C 184.401 143.735,184.080 143.600,183.688 143.600 C 183.297 143.600,182.717 143.240,182.400 142.800 C 182.083 142.360,181.503 142.000,181.112 142.000 C 180.720 142.000,180.400 141.820,180.400 141.600 C 180.400 141.380,180.080 141.200,179.688 141.200 C 179.297 141.200,178.717 140.840,178.400 140.400 C 178.083 139.960,177.503 139.600,177.112 139.600 C 176.720 139.600,176.400 139.420,176.400 139.200 C 176.400 138.980,176.080 138.800,175.688 138.800 C 175.297 138.800,174.717 138.440,174.400 138.000 C 174.083 137.560,173.539 137.200,173.192 137.200 C 172.844 137.200,172.365 137.005,172.127 136.767 C 171.681 136.321,170.000 137.055,170.000 137.696 C 170.000 137.863,169.680 138.000,169.288 138.000 C 168.897 138.000,168.317 138.360,168.000 138.800 C 167.683 139.240,167.143 139.600,166.800 139.600 C 166.457 139.600,165.917 139.960,165.600 140.400 C 165.283 140.840,164.703 141.200,164.312 141.200 C 163.920 141.200,163.600 141.380,163.600 141.600 C 163.600 141.820,163.240 142.000,162.800 142.000 C 162.360 142.000,162.000 142.180,162.000 142.400 C 162.000 142.620,161.764 142.800,161.475 142.800 C 161.187 142.800,160.564 143.160,160.092 143.600 C 159.620 144.040,158.956 144.400,158.617 144.400 C 158.278 144.400,158.000 144.580,158.000 144.800 C 158.000 145.020,157.717 145.200,157.371 145.200 C 155.722 145.200,155.600 145.928,155.600 155.748 C 155.600 161.586,155.448 165.247,155.200 165.400 C 154.980 165.536,154.800 166.087,154.800 166.624 C 154.800 167.161,154.620 167.600,154.400 167.600 C 154.180 167.600,154.000 168.320,154.000 169.200 C 154.000 170.080,153.820 170.800,153.600 170.800 C 153.363 170.800,153.200 172.267,153.200 174.400 C 153.200 176.533,153.363 178.000,153.600 178.000 C 153.820 178.000,154.000 178.463,154.000 179.029 C 154.000 180.186,154.827 181.200,155.771 181.200 C 156.117 181.200,156.400 181.380,156.400 181.600 C 156.400 182.178,161.443 182.095,162.490 181.500 C 163.831 180.737,164.400 180.120,164.400 179.429 C 164.400 179.083,164.580 178.800,164.800 178.800 C 165.037 178.800,165.200 177.333,165.200 175.200 C 165.200 171.867,165.259 171.600,166.000 171.600 C 166.440 171.600,166.800 171.780,166.800 172.000 C 166.800 172.220,167.035 172.400,167.322 172.400 C 167.609 172.400,168.509 173.009,169.322 173.754 L 170.800 175.108 170.800 182.154 C 170.800 186.167,170.642 189.200,170.433 189.200 C 169.646 189.200,170.202 192.190,171.017 192.341 C 171.448 192.421,172.029 192.672,172.310 192.900 C 172.590 193.128,172.945 193.189,173.098 193.035 C 173.251 192.882,173.122 192.599,172.812 192.407 C 172.203 192.031,171.981 178.522,172.535 175.593 C 172.778 174.311,175.150 172.336,177.757 171.246 C 177.960 171.161,179.818 170.036,181.887 168.746 C 186.441 165.906,187.653 165.933,191.600 168.965 C 191.930 169.218,193.010 169.859,194.000 170.388 C 194.990 170.918,196.717 171.935,197.838 172.648 L 199.876 173.945 200.115 182.473 C 200.351 190.885,200.342 191.019,199.438 192.400 C 198.902 193.218,198.437 194.674,198.319 195.904 C 198.093 198.259,197.289 199.419,195.300 200.261 C 193.632 200.966,193.641 200.978,195.924 201.116 C 197.678 201.221,197.899 201.133,198.423 200.116 C 198.740 199.502,199.167 198.879,199.374 198.730 C 199.596 198.571,199.535 198.204,199.225 197.830 C 198.836 197.361,198.825 197.200,199.184 197.200 C 199.523 197.200,199.608 196.604,199.468 195.200 C 199.255 193.041,199.230 193.064,201.650 193.149 C 202.754 193.188,203.508 193.583,204.800 194.800 C 205.734 195.680,206.747 196.400,207.049 196.400 C 207.352 196.400,207.600 196.580,207.600 196.800 C 207.600 197.020,207.960 197.200,208.400 197.200 C 208.840 197.200,209.200 197.380,209.200 197.600 C 209.200 197.820,209.560 198.000,210.000 198.000 C 211.839 198.000,210.450 196.651,205.618 193.742 L 202.200 191.684 202.338 182.942 C 202.413 178.134,202.593 174.080,202.738 173.934 C 203.039 173.628,209.592 169.600,209.788 169.600 C 209.860 169.600,211.103 168.880,212.552 168.000 C 215.928 165.949,216.047 165.960,220.513 168.746 C 222.582 170.036,224.437 171.161,224.637 171.246 C 228.275 172.795,229.526 174.035,229.751 176.317 C 230.018 179.029,230.170 184.763,230.071 188.423 L 230.000 191.046 228.200 192.315 C 227.210 193.013,226.400 193.857,226.400 194.192 C 226.400 194.878,227.024 195.008,227.400 194.400 C 227.536 194.180,227.997 194.000,228.424 194.000 C 228.851 194.000,229.200 193.820,229.200 193.600 C 229.200 193.380,229.483 193.200,229.829 193.200 C 231.455 193.200,231.600 192.414,231.600 183.610 C 231.600 174.650,231.947 173.200,234.094 173.200 C 234.385 173.200,234.883 172.840,235.200 172.400 C 235.517 171.960,236.097 171.600,236.488 171.600 C 236.880 171.600,237.200 171.420,237.200 171.200 C 237.200 170.980,237.560 170.800,238.000 170.800 C 238.440 170.800,238.800 170.620,238.800 170.400 C 238.800 170.180,239.120 170.000,239.512 170.000 C 239.903 170.000,240.483 169.640,240.800 169.200 C 241.117 168.760,241.697 168.400,242.088 168.400 C 242.480 168.400,242.800 168.220,242.800 168.000 C 242.800 167.780,243.160 167.600,243.600 167.600 C 244.040 167.600,244.400 167.420,244.400 167.200 C 244.400 166.980,244.716 166.800,245.102 166.800 C 246.490 166.800,246.760 164.965,246.768 155.483 C 246.774 147.224,246.710 146.341,246.088 146.110 C 245.709 145.970,245.109 145.528,244.753 145.128 C 244.397 144.727,243.895 144.400,243.636 144.400 C 243.378 144.400,242.780 144.040,242.308 143.600 C 241.836 143.160,241.213 142.800,240.925 142.800 C 240.636 142.800,240.400 142.620,240.400 142.400 C 240.400 142.180,240.040 142.000,239.600 142.000 C 239.160 142.000,238.800 141.820,238.800 141.600 C 238.800 141.380,238.440 141.200,238.000 141.200 C 237.560 141.200,237.200 141.020,237.200 140.800 C 237.200 140.580,236.964 140.400,236.675 140.400 C 236.387 140.400,235.764 140.040,235.292 139.600 C 234.820 139.160,234.233 138.800,233.988 138.800 C 232.567 138.800,232.400 137.799,232.400 129.283 L 232.400 120.909 231.345 119.855 C 230.765 119.275,230.045 118.800,229.745 118.800 C 229.445 118.800,229.200 118.620,229.200 118.400 C 229.200 118.180,228.880 118.000,228.488 118.000 C 228.097 118.000,227.517 117.640,227.200 117.200 C 226.883 116.760,226.303 116.400,225.912 116.400 C 225.520 116.400,225.200 116.220,225.200 116.000 C 225.200 115.780,224.880 115.600,224.488 115.600 C 224.097 115.600,223.517 115.240,223.200 114.800 C 222.883 114.360,222.386 114.000,222.095 114.000 C 221.804 114.000,221.180 113.640,220.708 113.200 C 220.236 112.760,219.613 112.400,219.325 112.400 C 219.036 112.400,218.800 112.220,218.800 112.000 C 218.800 111.780,218.440 111.600,218.000 111.600 C 217.560 111.600,217.200 111.420,217.200 111.200 C 217.200 110.473,214.582 110.771,213.692 111.600 M218.624 115.450 C 219.931 116.248,221.810 117.389,222.800 117.986 C 228.398 121.362,229.099 121.933,229.305 123.282 C 229.722 126.022,229.417 137.728,228.925 137.892 C 228.663 137.979,227.673 138.641,226.725 139.362 C 225.776 140.083,224.820 140.747,224.600 140.837 C 223.588 141.250,217.581 144.907,217.379 145.233 C 216.939 145.946,215.327 145.584,213.176 144.290 C 211.979 143.569,209.740 142.281,208.200 141.428 C 206.660 140.574,204.725 139.349,203.900 138.704 L 202.400 137.533 202.400 130.036 C 202.400 121.142,201.661 122.399,209.800 117.454 C 216.371 113.463,215.639 113.629,218.624 115.450 M175.561 142.000 C 177.410 143.100,178.967 144.000,179.021 144.000 C 179.406 144.000,184.702 147.413,185.100 147.918 C 185.461 148.376,185.600 150.705,185.600 156.289 L 185.600 164.025 183.300 165.459 C 171.150 173.031,170.998 173.080,167.723 170.507 C 166.885 169.848,165.615 169.010,164.900 168.645 C 164.185 168.279,163.600 167.804,163.600 167.590 C 163.600 167.375,163.240 167.200,162.800 167.200 C 161.842 167.200,161.816 167.653,162.600 170.665 C 164.009 176.073,162.790 179.709,159.497 179.922 C 155.924 180.152,154.946 175.716,156.975 168.478 C 157.913 165.131,158.264 160.486,158.376 149.953 C 158.403 147.467,158.814 147.044,163.800 144.389 C 165.833 143.306,168.036 142.061,170.200 140.772 C 171.865 139.780,171.807 139.767,175.561 142.000 M203.400 141.148 C 215.726 148.136,214.800 146.907,214.800 156.280 L 214.800 164.008 213.300 165.040 C 210.341 167.078,201.788 171.982,201.178 171.991 C 200.836 171.996,199.756 171.495,198.778 170.877 C 197.800 170.260,196.730 169.641,196.400 169.502 C 196.070 169.363,194.000 168.111,191.800 166.721 L 187.800 164.193 187.692 155.941 L 187.584 147.688 189.092 146.766 C 192.884 144.446,200.794 140.041,201.200 140.023 C 201.310 140.018,202.300 140.525,203.400 141.148 M232.120 140.655 C 232.824 141.016,234.930 142.231,236.800 143.355 C 242.241 146.626,242.564 146.810,243.304 147.059 C 244.381 147.421,244.571 148.808,244.586 156.417 C 244.602 164.493,244.491 164.837,241.342 166.422 C 240.274 166.960,238.931 167.771,238.358 168.225 C 236.334 169.829,230.900 172.413,230.136 172.135 C 229.731 171.988,228.680 171.384,227.800 170.793 C 226.920 170.202,224.400 168.676,222.200 167.403 C 216.240 163.951,216.800 165.139,216.800 155.943 L 216.800 148.010 218.500 146.918 C 220.236 145.803,220.783 145.471,224.230 143.437 C 225.313 142.798,227.010 141.776,228.000 141.165 C 230.145 139.843,230.458 139.804,232.120 140.655 M225.053 194.713 C 224.923 194.924,224.318 195.203,223.708 195.332 C 220.798 195.950,218.919 200.279,220.762 202.122 C 222.555 203.915,220.826 210.888,218.200 212.456 C 217.540 212.850,216.685 213.365,216.300 213.600 C 215.911 213.838,215.600 213.863,215.600 213.658 C 215.600 213.454,214.899 213.006,214.041 212.663 C 210.748 211.345,209.704 206.814,211.380 201.105 C 212.123 198.575,211.999 197.971,210.800 198.284 C 210.202 198.440,210.000 198.830,210.000 199.823 C 210.000 200.554,209.820 201.264,209.600 201.400 C 209.380 201.536,209.200 202.087,209.200 202.624 C 209.200 203.161,209.016 203.600,208.791 203.600 C 208.025 203.600,208.407 209.672,209.248 210.862 C 209.662 211.446,210.000 212.211,210.000 212.562 C 210.000 212.933,210.334 213.200,210.800 213.200 C 211.240 213.200,211.600 213.380,211.600 213.600 C 211.600 213.820,211.949 214.000,212.376 214.000 C 212.803 214.000,213.249 214.156,213.368 214.348 C 213.667 214.833,217.509 214.872,217.805 214.392 C 217.938 214.177,218.493 214.000,219.037 214.000 C 220.235 214.000,222.800 211.571,222.800 210.437 C 222.800 210.003,222.980 209.536,223.200 209.400 C 223.420 209.264,223.600 207.903,223.600 206.376 C 223.600 204.792,223.428 203.600,223.200 203.600 C 222.980 203.600,222.800 203.161,222.800 202.624 C 222.800 202.087,222.620 201.536,222.400 201.400 C 222.180 201.264,222.000 200.623,222.000 199.976 C 222.000 199.329,221.820 198.800,221.600 198.800 C 221.380 198.800,221.200 198.620,221.200 198.400 C 221.200 198.180,221.436 198.000,221.725 198.000 C 222.013 198.000,222.636 197.640,223.108 197.200 C 223.580 196.760,224.167 196.400,224.412 196.400 C 225.208 196.400,226.148 195.188,225.699 194.739 C 225.443 194.483,225.202 194.473,225.053 194.713 M175.600 195.833 C 175.600 196.182,175.814 196.395,176.075 196.308 C 176.817 196.061,176.940 195.200,176.233 195.200 C 175.885 195.200,175.600 195.485,175.600 195.833 M176.124 197.921 C 175.589 198.255,175.539 200.715,176.061 201.038 C 176.248 201.153,176.400 201.597,176.400 202.024 C 176.400 202.451,176.580 202.800,176.800 202.800 C 177.020 202.800,177.200 203.160,177.200 203.600 C 177.200 204.293,177.467 204.400,179.200 204.400 L 181.200 204.400 181.247 209.700 C 181.273 212.615,181.270 215.205,181.240 215.456 C 181.210 215.707,181.816 216.284,182.587 216.739 C 183.536 217.299,183.912 217.765,183.751 218.183 C 183.605 218.563,183.736 218.800,184.091 218.800 C 185.130 218.800,185.189 218.307,184.239 217.560 C 183.595 217.053,183.362 216.535,183.485 215.888 C 183.586 215.359,183.410 214.741,183.081 214.467 C 182.441 213.936,182.569 205.648,183.236 204.355 C 183.684 203.488,182.721 202.191,181.871 202.518 C 181.516 202.654,181.119 202.593,180.989 202.383 C 180.859 202.172,180.226 202.000,179.582 202.000 C 178.432 202.000,177.692 201.012,176.822 198.312 C 176.690 197.903,176.407 197.744,176.124 197.921 M193.200 202.174 C 193.200 203.135,193.955 204.800,194.390 204.800 C 194.973 204.800,194.875 203.132,194.243 202.300 C 193.598 201.451,193.200 201.402,193.200 202.174 M176.442 205.099 C 174.960 205.274,174.000 206.001,174.000 206.948 C 174.000 207.281,173.820 207.664,173.600 207.800 C 171.883 208.861,174.459 211.600,177.175 211.600 C 179.838 211.600,180.400 211.042,180.400 208.400 C 180.400 205.555,179.430 204.746,176.442 205.099 M194.413 206.565 C 194.165 207.219,194.141 207.921,194.353 208.326 C 195.656 210.808,194.948 214.706,192.858 216.562 C 192.386 216.981,192.000 217.551,192.000 217.829 C 192.000 218.106,191.775 218.424,191.500 218.535 C 191.115 218.690,191.121 218.744,191.524 218.768 C 191.812 218.786,191.936 218.980,191.800 219.200 C 191.664 219.420,191.763 219.600,192.019 219.600 C 192.276 219.600,192.386 219.339,192.263 219.020 C 192.115 218.633,192.233 218.515,192.620 218.663 C 192.939 218.786,193.200 218.707,193.200 218.489 C 193.200 218.272,193.583 217.993,194.052 217.871 C 194.598 217.728,194.822 217.435,194.677 217.057 C 194.553 216.732,194.709 216.367,195.025 216.246 C 195.341 216.124,195.600 215.749,195.600 215.413 C 195.600 215.076,195.761 214.800,195.959 214.800 C 196.768 214.800,196.466 207.238,195.621 206.330 L 194.827 205.478 194.413 206.565 M178.322 208.452 C 178.461 209.648,177.432 210.290,176.549 209.558 C 175.869 208.993,175.848 208.312,176.492 207.668 C 177.258 206.902,178.188 207.300,178.322 208.452 M185.846 218.624 C 185.700 219.004,185.675 219.409,185.791 219.524 C 185.906 219.639,186.003 219.478,186.006 219.167 C 186.011 218.700,186.081 218.706,186.400 219.200 C 186.613 219.530,186.788 219.620,186.788 219.400 C 186.788 218.465,186.119 217.914,185.846 218.624 M187.900 219.482 C 188.395 219.578,189.205 219.578,189.700 219.482 C 190.195 219.387,189.790 219.309,188.800 219.309 C 187.810 219.309,187.405 219.387,187.900 219.482 " stroke="none" fill="#5c068e" fill-rule="evenodd"></path><path id="path2" d="M168.200 142.025 C 166.660 142.883,164.770 143.893,164.000 144.271 C 163.230 144.649,161.655 145.578,160.500 146.336 L 158.400 147.713 158.338 152.357 C 158.190 163.544,158.065 166.039,157.629 166.566 C 157.378 166.868,157.063 168.040,156.929 169.169 C 156.795 170.299,156.531 171.319,156.343 171.435 C 155.220 172.129,155.999 177.304,157.428 178.653 C 161.087 182.103,164.462 177.088,162.604 170.964 C 161.766 168.200,161.818 167.200,162.800 167.200 C 163.240 167.200,163.600 167.376,163.600 167.592 C 163.600 167.807,164.365 168.367,165.300 168.836 C 166.235 169.305,167.507 170.163,168.126 170.744 C 170.596 173.059,172.323 172.432,184.100 164.943 L 185.600 163.989 185.600 156.271 C 185.600 147.100,186.265 148.300,178.720 143.860 C 172.028 139.922,171.987 139.915,168.200 142.025 M212.671 168.007 C 211.169 168.883,209.796 169.600,209.620 169.600 C 209.443 169.600,209.088 169.853,208.832 170.161 C 208.576 170.470,207.425 171.183,206.275 171.746 C 202.328 173.677,202.400 173.505,202.397 180.916 C 202.395 184.482,202.282 188.325,202.146 189.455 L 201.899 191.510 205.443 193.603 C 209.247 195.849,210.782 197.089,210.793 197.924 C 210.797 198.212,210.981 198.335,211.203 198.198 C 211.933 197.747,212.026 198.987,211.412 201.010 C 208.825 209.538,213.961 216.450,219.333 211.669 C 220.932 210.245,222.016 203.424,220.841 202.180 C 219.255 200.500,220.201 197.113,222.600 195.882 C 225.319 194.486,225.480 194.441,226.007 194.929 C 226.402 195.293,226.453 195.286,226.232 194.896 C 225.938 194.375,227.410 192.700,229.144 191.585 C 230.072 190.987,230.087 190.877,230.069 184.493 C 230.039 174.102,230.139 174.331,224.200 170.977 C 221.054 169.200,220.006 168.568,218.530 167.552 C 216.370 166.066,215.939 166.100,212.671 168.007 M193.400 170.289 C 194.318 171.256,197.204 172.930,197.478 172.655 C 197.580 172.553,196.794 171.974,195.731 171.366 C 194.669 170.759,193.530 170.079,193.200 169.854 C 192.870 169.630,192.960 169.826,193.400 170.289 M173.575 173.713 C 172.987 174.172,172.238 175.600,172.585 175.600 C 172.673 175.600,173.130 175.060,173.600 174.400 C 174.531 173.093,174.527 172.971,173.575 173.713 M199.228 173.876 C 199.318 174.915,199.944 175.796,199.972 174.924 C 199.987 174.442,199.820 173.936,199.600 173.800 C 199.380 173.664,199.213 173.698,199.228 173.876 M200.128 188.800 C 200.128 190.230,200.201 190.815,200.289 190.100 C 200.378 189.385,200.378 188.215,200.289 187.500 C 200.201 186.785,200.128 187.370,200.128 188.800 M197.383 196.925 C 196.989 198.497,197.431 199.186,197.967 197.835 C 198.270 197.073,198.294 196.534,198.037 196.277 C 197.780 196.020,197.554 196.244,197.383 196.925 M176.646 197.500 C 177.086 200.000,178.404 202.000,179.612 202.000 C 180.239 202.000,180.854 202.163,180.977 202.362 C 181.100 202.562,181.545 202.635,181.966 202.525 C 182.905 202.279,183.723 203.560,183.178 204.422 C 182.706 205.168,182.690 208.685,183.158 208.974 C 183.759 209.346,184.000 208.090,184.000 204.581 C 184.000 200.834,183.700 200.400,181.106 200.400 C 180.366 200.400,179.535 200.175,179.260 199.900 C 178.985 199.625,178.551 199.400,178.295 199.400 C 178.039 199.400,177.670 198.725,177.475 197.900 C 177.069 196.182,176.354 195.837,176.646 197.500 M192.701 199.280 C 192.494 199.880,193.182 201.600,193.629 201.600 C 193.795 201.600,193.901 201.030,193.865 200.333 C 193.799 199.039,193.025 198.340,192.701 199.280 M192.780 204.437 C 192.393 205.161,192.424 205.382,192.955 205.679 C 194.292 206.427,193.619 216.312,192.247 216.073 C 191.827 216.000,190.917 216.550,190.093 217.373 C 188.541 218.926,188.324 219.002,187.183 218.391 C 186.566 218.061,186.463 218.099,186.652 218.591 C 186.806 218.993,187.449 219.210,188.543 219.231 C 189.454 219.247,190.529 219.324,190.931 219.400 C 191.451 219.498,191.594 219.361,191.426 218.925 C 191.264 218.502,191.372 218.381,191.775 218.535 C 192.175 218.688,192.286 218.569,192.128 218.156 C 191.995 217.809,192.334 217.095,192.927 216.476 C 195.025 214.286,195.626 210.827,194.345 208.326 C 194.144 207.933,194.168 207.211,194.403 206.593 C 194.727 205.740,194.654 205.340,194.028 204.545 L 193.251 203.557 192.780 204.437 M187.635 208.365 C 186.696 209.304,186.483 211.923,187.280 212.720 C 188.792 214.232,192.253 212.215,191.760 210.108 C 191.238 207.876,189.049 206.951,187.635 208.365 M190.557 210.123 C 190.910 210.700,190.847 210.960,190.245 211.408 C 188.854 212.441,187.281 210.879,188.492 209.668 C 189.133 209.027,190.003 209.218,190.557 210.123 M182.656 211.878 C 182.183 212.350,182.394 213.897,183.000 214.400 C 183.514 214.827,183.600 214.694,183.600 213.473 C 183.600 212.084,183.172 211.361,182.656 211.878 M183.473 216.044 C 183.310 216.665,183.047 216.834,182.524 216.651 C 181.828 216.408,181.828 216.420,182.519 216.957 C 183.920 218.046,185.604 216.765,184.249 215.641 C 183.814 215.280,183.650 215.365,183.473 216.044 M184.600 217.600 C 184.464 217.820,184.734 218.000,185.200 218.000 C 185.666 218.000,185.936 217.820,185.800 217.600 C 185.664 217.380,185.394 217.200,185.200 217.200 C 185.006 217.200,184.736 217.380,184.600 217.600 " stroke="none" fill="#e225a6" fill-rule="evenodd"></path><path id="path3" d="M85.200 226.400 C 85.200 226.620,84.925 226.800,84.589 226.800 C 83.796 226.800,80.400 230.196,80.400 230.989 C 80.400 231.325,80.220 231.600,80.000 231.600 C 79.745 231.600,79.600 234.800,79.600 240.400 C 79.600 246.000,79.745 249.200,80.000 249.200 C 80.220 249.200,80.400 249.476,80.400 249.813 C 80.400 250.609,82.991 253.200,83.787 253.200 C 84.124 253.200,84.400 253.380,84.400 253.600 C 84.400 254.493,108.149 254.103,108.800 253.200 C 109.117 252.760,109.682 252.400,110.055 252.400 C 110.428 252.400,110.972 251.860,111.264 251.200 C 111.556 250.540,111.931 250.000,112.098 250.000 C 112.264 250.000,112.400 249.640,112.400 249.200 C 112.400 248.760,112.580 248.400,112.800 248.400 C 113.020 248.400,113.200 247.500,113.200 246.400 L 113.200 244.400 110.800 244.400 C 108.924 244.400,108.400 244.532,108.400 245.005 C 108.400 248.586,106.627 249.200,96.282 249.200 L 86.929 249.200 85.664 247.811 L 84.400 246.421 84.400 239.992 C 84.400 233.172,84.884 231.600,86.982 231.600 C 87.322 231.600,87.600 231.420,87.600 231.200 C 87.600 230.945,90.800 230.800,96.400 230.800 C 102.000 230.800,105.200 230.945,105.200 231.200 C 105.200 231.420,105.483 231.600,105.829 231.600 C 106.637 231.600,107.600 232.563,107.600 233.371 C 107.600 233.717,107.780 234.000,108.000 234.000 C 108.220 234.000,108.400 234.360,108.400 234.800 C 108.400 235.511,108.667 235.600,110.800 235.600 L 113.200 235.600 113.200 234.000 C 113.200 233.120,113.020 232.400,112.800 232.400 C 112.580 232.400,112.400 231.945,112.400 231.389 C 112.400 230.011,109.189 226.800,107.811 226.800 C 107.255 226.800,106.800 226.620,106.800 226.400 C 106.800 226.143,102.933 226.000,96.000 226.000 C 89.067 226.000,85.200 226.143,85.200 226.400 M116.400 240.000 L 116.400 254.000 118.800 254.000 L 121.200 254.000 121.200 240.000 L 121.200 226.000 118.800 226.000 L 116.400 226.000 116.400 240.000 M125.200 240.000 L 125.200 254.000 127.600 254.000 L 130.000 254.000 130.000 244.849 C 130.000 234.874,130.267 233.602,131.953 235.546 C 132.360 236.016,132.897 236.400,133.145 236.400 C 133.393 236.400,134.515 237.300,135.639 238.400 C 136.762 239.500,137.857 240.400,138.072 240.400 C 138.287 240.400,139.154 241.120,140.000 242.000 C 140.846 242.880,141.746 243.600,142.000 243.600 C 142.254 243.600,143.154 244.320,144.000 245.200 C 144.846 246.080,145.730 246.800,145.967 246.800 C 146.203 246.800,147.315 247.700,148.439 248.800 C 149.562 249.900,150.657 250.800,150.872 250.800 C 151.087 250.800,151.954 251.520,152.800 252.400 C 154.233 253.892,154.488 254.000,156.569 254.000 L 158.800 254.000 158.800 240.000 L 158.800 226.000 156.400 226.000 L 154.000 226.000 154.000 236.000 C 154.000 242.400,153.856 246.000,153.600 246.000 C 153.380 246.000,153.200 245.820,153.200 245.600 C 153.200 245.380,152.916 245.200,152.569 245.200 C 152.221 245.200,151.246 244.480,150.400 243.600 C 149.554 242.720,148.670 242.000,148.433 242.000 C 148.197 242.000,147.085 241.100,145.961 240.000 C 144.838 238.900,143.743 238.000,143.528 238.000 C 143.313 238.000,142.446 237.280,141.600 236.400 C 140.754 235.520,139.854 234.800,139.600 234.800 C 139.346 234.800,138.446 234.080,137.600 233.200 C 136.754 232.320,135.890 231.600,135.680 231.600 C 135.469 231.600,134.353 230.700,133.200 229.600 C 132.047 228.500,130.895 227.600,130.640 227.600 C 130.385 227.600,129.917 227.240,129.600 226.800 C 129.162 226.192,128.565 226.000,127.112 226.000 L 125.200 226.000 125.200 240.000 M162.710 239.700 C 162.650 247.235,162.656 253.535,162.724 253.700 C 162.792 253.865,170.046 254.000,178.844 254.000 L 194.840 254.000 194.720 251.700 L 194.600 249.400 181.100 249.295 L 167.600 249.189 167.600 245.995 L 167.600 242.800 179.549 242.800 L 191.498 242.800 191.738 241.300 C 191.870 240.475,191.872 239.395,191.742 238.900 L 191.507 238.000 179.553 238.000 L 167.600 238.000 167.600 234.400 L 167.600 230.800 181.200 230.800 L 194.800 230.800 194.800 228.400 L 194.800 226.000 178.810 226.000 L 162.821 226.000 162.710 239.700 M205.200 239.979 L 205.200 254.000 208.000 254.000 L 210.800 254.000 210.800 248.400 L 210.800 242.800 222.000 242.800 L 233.200 242.800 233.200 248.400 L 233.200 254.000 236.005 254.000 L 238.810 254.000 238.705 240.100 L 238.600 226.200 235.900 226.082 L 233.200 225.963 233.200 231.982 L 233.200 238.000 222.000 238.000 L 210.800 238.000 210.753 232.300 C 210.727 229.165,210.718 226.492,210.733 226.360 C 210.748 226.228,209.509 226.084,207.980 226.039 L 205.200 225.958 205.200 239.979 M242.000 240.000 L 242.000 254.000 244.800 254.000 L 247.600 254.000 247.600 240.000 L 247.600 226.000 244.800 226.000 L 242.000 226.000 242.000 240.000 M248.400 227.112 C 248.400 227.765,248.730 228.461,249.200 228.800 C 249.640 229.117,250.000 229.657,250.000 230.000 C 250.000 230.343,250.360 230.883,250.800 231.200 C 251.240 231.517,251.600 232.057,251.600 232.400 C 251.600 232.743,251.960 233.283,252.400 233.600 C 252.840 233.917,253.200 234.457,253.200 234.800 C 253.200 235.143,253.560 235.683,254.000 236.000 C 254.440 236.317,254.800 236.857,254.800 237.200 C 254.800 237.543,255.160 238.083,255.600 238.400 C 256.040 238.717,256.400 239.257,256.400 239.600 C 256.400 239.943,256.760 240.483,257.200 240.800 C 257.640 241.117,258.000 241.657,258.000 242.000 C 258.000 242.343,258.360 242.883,258.800 243.200 C 259.240 243.517,259.600 244.057,259.600 244.400 C 259.600 244.743,259.960 245.283,260.400 245.600 C 260.840 245.917,261.200 246.380,261.200 246.629 C 261.200 246.878,261.740 247.646,262.400 248.337 C 263.060 249.028,263.600 249.825,263.600 250.108 C 263.600 250.391,263.960 250.883,264.400 251.200 C 264.840 251.517,265.200 252.020,265.200 252.317 C 265.200 253.319,266.333 254.000,268.000 254.000 C 269.667 254.000,270.800 253.319,270.800 252.317 C 270.800 252.020,271.160 251.517,271.600 251.200 C 272.040 250.883,272.400 250.343,272.400 250.000 C 272.400 249.657,272.760 249.117,273.200 248.800 C 273.640 248.483,274.000 247.943,274.000 247.600 C 274.000 247.257,274.360 246.717,274.800 246.400 C 275.240 246.083,275.600 245.543,275.600 245.200 C 275.600 244.857,275.960 244.317,276.400 244.000 C 276.840 243.683,277.200 243.238,277.201 243.012 C 277.201 242.785,277.741 241.970,278.400 241.200 C 279.059 240.430,279.599 239.615,279.599 239.388 C 279.600 239.162,279.960 238.717,280.400 238.400 C 280.840 238.083,281.200 237.543,281.200 237.200 C 281.200 236.857,281.560 236.317,282.000 236.000 C 282.440 235.683,282.800 235.143,282.800 234.800 C 282.800 234.457,283.160 233.917,283.600 233.600 C 284.040 233.283,284.400 232.743,284.400 232.400 C 284.400 232.057,284.760 231.517,285.200 231.200 C 285.640 230.883,286.000 230.343,286.000 230.000 C 286.000 229.657,286.360 229.117,286.800 228.800 C 288.764 227.385,287.860 226.000,284.971 226.000 C 282.327 226.000,281.200 226.503,281.200 227.683 C 281.200 227.980,280.840 228.483,280.400 228.800 C 279.960 229.117,279.600 229.657,279.600 230.000 C 279.600 230.343,279.240 230.883,278.800 231.200 C 278.360 231.517,278.000 232.057,278.000 232.400 C 278.000 232.743,277.640 233.283,277.200 233.600 C 276.760 233.917,276.400 234.457,276.400 234.800 C 276.400 235.143,276.040 235.683,275.600 236.000 C 275.160 236.317,274.800 236.857,274.800 237.200 C 274.800 237.543,274.440 238.083,274.000 238.400 C 273.560 238.717,273.200 239.257,273.200 239.600 C 273.200 239.943,272.840 240.483,272.400 240.800 C 271.960 241.117,271.600 241.657,271.600 242.000 C 271.600 242.343,271.240 242.883,270.800 243.200 C 270.360 243.517,270.000 244.031,270.000 244.341 C 270.000 244.652,269.673 245.197,269.272 245.553 C 268.872 245.909,268.394 246.560,268.210 247.000 C 267.878 247.796,267.875 247.796,267.691 247.006 C 267.589 246.569,267.210 245.939,266.850 245.606 C 266.489 245.273,265.940 244.505,265.630 243.900 C 265.319 243.295,264.915 242.800,264.732 242.800 C 264.550 242.800,264.400 242.480,264.400 242.088 C 264.400 241.697,264.040 241.117,263.600 240.800 C 263.160 240.483,262.800 239.943,262.800 239.600 C 262.800 239.257,262.440 238.717,262.000 238.400 C 261.560 238.083,261.200 237.543,261.200 237.200 C 261.200 236.857,260.840 236.317,260.400 236.000 C 259.960 235.683,259.600 235.143,259.600 234.800 C 259.600 234.457,259.240 233.917,258.800 233.600 C 258.360 233.283,258.000 232.785,258.000 232.494 C 258.000 232.202,257.547 231.510,256.992 230.956 C 256.438 230.402,256.106 229.752,256.254 229.512 C 256.415 229.251,256.338 229.191,256.062 229.362 C 255.788 229.531,255.600 229.393,255.600 229.024 C 255.600 228.681,255.420 228.400,255.200 228.400 C 254.980 228.400,254.800 228.117,254.800 227.771 C 254.800 226.502,253.731 226.000,251.029 226.000 C 248.421 226.000,248.400 226.009,248.400 227.112 M288.400 240.000 L 288.400 254.000 304.420 254.000 L 320.440 254.000 320.320 251.700 L 320.200 249.400 306.700 249.295 L 293.200 249.189 293.200 245.995 L 293.200 242.800 305.200 242.800 L 317.200 242.800 317.200 240.400 L 317.200 238.000 305.200 238.000 L 293.200 238.000 293.200 234.400 L 293.200 230.800 306.800 230.800 L 320.400 230.800 320.400 228.400 L 320.400 226.000 304.400 226.000 L 288.400 226.000 288.400 240.000 " stroke="none" fill="#f9f9fa" fill-rule="evenodd"></path><path id="path4" d="M184.475 167.400 C 183.997 167.950,183.244 168.400,182.803 168.400 C 182.361 168.400,182.000 168.589,182.000 168.820 C 182.000 169.052,181.370 169.504,180.600 169.826 C 179.830 170.148,179.200 170.560,179.200 170.742 C 179.200 170.924,178.480 171.289,177.600 171.553 C 176.720 171.816,176.000 172.205,176.000 172.416 C 176.000 172.627,175.745 172.800,175.434 172.800 C 175.122 172.800,174.277 173.545,173.556 174.456 L 172.245 176.111 172.290 184.071 L 172.335 192.031 173.968 193.615 C 174.866 194.487,175.871 195.200,176.200 195.200 C 177.013 195.200,176.958 195.861,176.100 196.399 C 175.485 196.785,175.504 196.810,176.257 196.606 C 176.985 196.408,177.171 196.602,177.490 197.887 C 177.696 198.719,178.058 199.361,178.294 199.313 C 178.530 199.265,178.943 199.490,179.211 199.813 C 179.479 200.136,180.318 200.400,181.075 200.400 C 183.702 200.400,184.000 200.826,184.000 204.581 C 184.000 208.090,183.759 209.346,183.158 208.974 C 182.961 208.852,182.800 209.383,182.800 210.153 C 182.800 210.923,182.980 211.664,183.200 211.800 C 183.420 211.936,183.600 212.735,183.600 213.575 C 183.600 214.444,183.858 215.316,184.200 215.600 C 185.336 216.543,184.346 218.061,183.064 217.343 C 182.715 217.147,182.714 217.206,183.057 217.578 C 183.405 217.956,183.716 217.966,184.364 217.619 C 185.165 217.191,187.146 217.921,186.617 218.450 C 186.519 218.547,186.976 218.621,187.632 218.614 C 188.431 218.605,189.273 218.162,190.180 217.275 C 190.933 216.540,191.856 216.006,192.255 216.075 C 193.620 216.312,194.285 206.423,192.955 205.679 C 192.401 205.369,192.384 205.180,192.832 204.359 C 193.378 203.358,193.357 201.444,192.788 200.378 C 192.605 200.037,192.603 199.519,192.783 199.227 C 193.248 198.475,194.110 199.137,193.868 200.062 C 193.702 200.697,193.819 200.787,194.533 200.575 C 196.190 200.081,197.200 199.191,197.200 198.223 C 197.200 196.922,197.607 195.957,198.042 196.226 C 198.239 196.348,198.400 195.717,198.400 194.824 C 198.400 193.252,198.893 192.677,199.363 193.700 C 199.489 193.975,199.497 193.810,199.380 193.334 C 199.263 192.857,199.355 192.352,199.584 192.210 C 200.177 191.843,200.134 176.741,199.534 174.737 C 199.189 173.587,198.799 173.115,198.034 172.925 C 196.589 172.566,194.722 171.473,192.353 169.601 C 191.239 168.720,190.058 168.000,189.727 168.000 C 189.397 168.000,188.669 167.640,188.109 167.200 C 186.743 166.125,185.525 166.192,184.475 167.400 M191.050 208.526 C 192.690 210.251,191.331 213.200,188.898 213.200 C 187.363 213.200,186.800 212.534,186.800 210.720 C 186.800 208.038,189.340 206.727,191.050 208.526 " stroke="none" fill="#ea4e72" fill-rule="evenodd"></path></g></svg>